<?xml version="1.0" encoding="utf-8"?>
<!-- Generator: Adobe Illustrator 12.0.1, SVG Export Plug-In . SVG Version: 6.00 Build 51448)  -->
<!DOCTYPE svg PUBLIC "-//W3C//DTD SVG 1.1//EN" "http://www.w3.org/Graphics/SVG/1.1/DTD/svg11.dtd" [
	<!ENTITY ns_svg "http://www.w3.org/2000/svg">
	<!ENTITY ns_xlink "http://www.w3.org/1999/xlink">
]>
<svg  version="1.1" id="Ebene_1" xmlns="&ns_svg;" xmlns:xlink="&ns_xlink;" width="520" height="441.01" viewBox="0 0 520 441.01"
	 overflow="visible" enable-background="new 0 0 520 441.01" xml:space="preserve">
<path fill="#343434" d="M520,30v93.5c-5.2-5.9-12.101-10.2-20-12.2V30c0-5.5-4.5-10-10-10H30c-5.5,0-10,4.5-10,10v340
	c0,5.5,4.5,10,10,10h200v20H30c-16.5,0-30-13.5-30-30V30C0,13.5,13.5,0,30,0h460C506.5,0,520,13.5,520,30z"/>
<path fill="#343434" d="M60,360V40c13.3,0,26.7,0,40,0v320C86.7,360,73.3,360,60,360z"/>
<rect x="120" y="40" fill="#343434" width="20" height="320"/>
<rect x="180" y="40" fill="#343434" width="20" height="320"/>
<path fill="#343434" d="M240,40v71.3c-7.9,2-14.8,6.3-20,12.2V40H240z"/>
<path fill="#343434" d="M222,348.6l8,8v3.4h-10v-13.5C220.6,347.2,221.3,347.9,222,348.6z"/>
<rect x="260" y="40" fill="#343434" width="40" height="70"/>
<rect x="320" y="40" fill="#343434" width="20" height="70"/>
<rect x="380" y="40" fill="#343434" width="40" height="70"/>
<rect x="440" y="40" fill="#343434" width="20" height="70"/>
<path d="M493.61,319.942c-4.825,6.726-11.579,14.651-14.213,22.419c-1.141,3.604-1.755,7.445-1.755,11.611v22.98h-17.547v-22.98
	c0-5.687,0.788-11.052,2.544-16.255c3.246-9.849,10.177-18.178,16.406-26.663c2.545-3.365,4.389-6.888,5.616-10.57
	c1.14-3.602,1.754-7.445,1.754-11.609v-30.587c0-10.331-7.281-18.898-18.247-21.381l-97.476-22.258
	c-4.035-0.72-7.106-3.924-7.106-7.847v-54.047c0-8.808-7.897-16.015-17.547-16.015c-9.651,0-17.549,7.207-17.549,16.015V272.22
	c0.088,1.201-0.087,2.481-0.615,3.602c-1.842,4.164-6.929,6.087-11.491,4.481l-22.637-8.405c-4.387-1.601-9.65-2.562-15.091-2.562
	c-5.703,0-11.317,0.961-16.056,3.362c-4.474,2.162-8.247,5.687-10.616,10.889c-0.788,1.763-1.403,3.765-1.842,5.927
	c7.106,0.961,15.441,2.803,23.511,5.524c9.741,3.363,19.216,8.087,25.97,14.174l26.321,24.022c2.456,2.321,6.053,4.323,9.563,6.325
	c9.826,5.604,19.302,11.05,19.302,23.38v14.014h-17.547v-14.012c0-3.522-5.354-6.564-10.967-9.768
	c-4.477-2.561-8.948-5.126-12.81-8.566l-26.321-24.023c-4.825-4.481-12.02-8.007-19.565-10.566
	c-10.001-3.442-20.267-5.127-26.846-5.127c-4.826,0-8.773-3.602-8.773-8.008c0-7.445,1.403-13.851,3.772-19.296
	c3.948-8.888,10.616-15.054,18.424-18.896c7.634-3.765,16.144-5.366,24.479-5.366c7.722,0,15.354,1.362,21.671,3.684l10.616,4.004
	V152.754c0-17.616,15.793-32.029,35.096-32.029s35.097,14.412,35.097,32.029v47.802l91.242,20.818
	c18.688,4.244,31.585,19.296,31.585,36.914v30.587c0,5.766-0.788,11.132-2.544,16.255
	C499.752,310.254,497.12,315.138,493.61,319.942z"/>
<path d="M310.943,441.01v-24.024c0-13.211,11.845-24.021,26.321-24.021h140.378c14.476,0,26.32,10.81,26.32,24.021v24.024h-17.547
	v-24.024c0-4.404-3.949-8.006-8.772-8.006H337.265c-4.826,0-8.773,3.602-8.773,8.006v24.024H310.943z"/>
</svg>
