<?xml version="1.0" encoding="utf-8"?>
<!-- Generator: Adobe Illustrator 12.0.1, SVG Export Plug-In . SVG Version: 6.00 Build 51448)  -->
<!DOCTYPE svg PUBLIC "-//W3C//DTD SVG 1.1//EN" "http://www.w3.org/Graphics/SVG/1.1/DTD/svg11.dtd" [
	<!ENTITY ns_svg "http://www.w3.org/2000/svg">
	<!ENTITY ns_xlink "http://www.w3.org/1999/xlink">
]>
<svg  version="1.1" id="Ebene_1" xmlns="&ns_svg;" xmlns:xlink="&ns_xlink;" width="520" height="389.885"
	 viewBox="0 0 520 389.885" overflow="visible" enable-background="new 0 0 520 389.885" xml:space="preserve">
<path id="curve28" d="M20,246.5c0,52.399,43.4,93.5,95.4,93.5h308.5c41.398,0,76.1-32.7,76.1-74.5c0-37.601-17.8-57.899-51.7-71.6
	l-7.7-3.101l1.602-8c6.6-34.8,0-71.3-29-94.1C387.6,68.6,353,66.5,323.4,79l-7.2,3l-4.602-6.3C285.6,40.8,256.7,20,211.8,20
	c-4.9,0-9.3,0.2-13.4,0.6c-60.4,5.7-102,50.7-102,111.5c0.1,0,0.6,11.7,0.7,12.8l0.7,8.2l-7.8,2.3C45.7,168.7,20,199.7,20,246.5z
	 M0,246.5c0-52.2,27.8-90.3,76.7-107.7c-0.1-0.6-0.3-6.7-0.2-6.7c0-71.2,49.3-124.7,120.1-131.4c5.2-0.4,10.3-0.7,15.2-0.7
	c48.2,0,82,20.9,111.2,57.8c34.6-12.1,73.4-7.7,102.5,15.2c32.5,25.6,43.2,65.7,37.6,105.6c37.7,17.299,56.9,44.799,56.9,86.9
	c0,52.8-43.7,94.5-96.1,94.5H115.4C52.5,360,0,309.899,0,246.5z"/>
<path id="curve28_2_" d="M20,246.5c0,52.399,43.4,93.5,95.4,93.5h308.5c41.398,0,76.1-32.7,76.1-74.5
	c0-37.601-17.8-57.899-51.7-71.6l-7.7-3.101l1.602-8c6.6-34.8,0-71.3-29-94.1C387.6,68.6,353,66.5,323.4,79l-7.2,3l-4.602-6.3
	C285.6,40.8,256.7,20,211.8,20c-4.9,0-9.3,0.2-13.4,0.6c-60.4,5.7-102,50.7-102,111.5c0.1,0,0.6,11.7,0.7,12.8l0.7,8.2l-7.8,2.3
	C45.7,168.7,20,199.7,20,246.5z M0,246.5c0-52.2,27.8-90.3,76.7-107.7c-0.1-0.6-0.3-6.7-0.2-6.7c0-71.2,49.3-124.7,120.1-131.4
	c5.2-0.4,10.3-0.7,15.2-0.7c48.2,0,82,20.9,111.2,57.8c34.6-12.1,73.4-7.7,102.5,15.2c32.5,25.6,43.2,65.7,37.6,105.6
	c37.7,17.299,56.9,44.799,56.9,86.9c0,52.8-43.7,94.5-96.1,94.5H115.4C52.5,360,0,309.899,0,246.5z"/>
<g>
	<path fill="none" d="M423.9,340c41.398,0,76.1-32.7,76.1-74.5c0-37.601-17.8-57.899-51.7-71.6l-7.7-3.101l1.602-8
		c6.6-34.8,0-71.3-29-94.1c-7.669-6.021-16.148-10.415-25.057-13.297L148.788,340H423.9z"/>
	<path fill="none" d="M316.2,82l-4.602-6.3C285.6,40.8,256.7,20,211.8,20c-4.9,0-9.3,0.2-13.4,0.6c-60.4,5.7-102,50.7-102,111.5
		c0.1,0,0.6,11.7,0.7,12.8l0.7,8.2l-7.8,2.3c-44.3,13.3-70,44.3-70,91.1c0,47.056,35,84.992,79.796,92.242l239.7-264.975
		C334.027,75.046,328.635,76.79,323.4,79L316.2,82z"/>
	<path d="M463.1,178.6c5.602-39.9-5.1-80-37.6-105.6c-7.133-5.613-14.852-10.107-22.944-13.527l-14.411,15.931
		c8.907,2.882,17.388,7.276,25.057,13.297c29,22.8,35.6,59.3,29,94.1l-1.602,8l7.7,3.101c33.9,13.699,51.7,34,51.7,71.6
		c0,41.8-34.7,74.5-76.1,74.5H148.788l-18.092,20H423.9c52.398,0,96.1-41.7,96.1-94.5C520,223.399,500.8,195.899,463.1,178.6z"/>
	<path d="M20,246.5c0-46.8,25.7-77.8,70-91.1l7.8-2.3l-0.7-8.2c-0.1-1.1-0.6-12.8-0.7-12.8c0-60.8,41.6-105.8,102-111.5
		c4.1-0.4,8.5-0.6,13.4-0.6c44.9,0,73.8,20.8,99.8,55.7L316.2,82l7.2-3c5.233-2.21,10.627-3.954,16.096-5.233l20.367-22.515
		C347.457,51.404,334.977,53.611,323,57.8C293.8,20.9,260,0,211.8,0c-4.9,0-10,0.3-15.2,0.7C125.8,7.4,76.5,60.9,76.5,132.1
		c-0.1,0,0.1,6.1,0.2,6.7C27.8,156.2,0,194.3,0,246.5c0,52.595,36.13,96.033,84.354,109.313l15.443-17.071
		C55,331.492,20,293.556,20,246.5z"/>
	<polygon fill="#FFFFFF" points="388.145,75.403 402.556,59.473 420.722,39.392 393.153,14.453 359.863,51.252 339.496,73.767 
		99.796,338.742 84.354,355.813 81.157,359.347 108.726,384.286 130.695,360 148.788,340 	"/>
</g>
<rect x="238.483" y="-42.866" transform="matrix(0.7415 0.6709 -0.6709 0.7415 199.5999 -116.5993)" width="25.285" height="487.225"/>
</svg>
