<?xml version="1.0" encoding="UTF-8"?>
<!DOCTYPE svg PUBLIC "-//W3C//DTD SVG 1.1//EN" "http://www.w3.org/Graphics/SVG/1.1/DTD/svg11.dtd">
<svg xmlns="http://www.w3.org/2000/svg" xml:space="preserve" width="580px" height="580px" shape-rendering="geometricPrecision" text-rendering="geometricPrecision" image-rendering="optimizeQuality" fill-rule="nonzero" clip-rule="nonzero" viewBox="0 0 5800 5800" xmlns:xlink="http://www.w3.org/1999/xlink">
	<title>hand_paper icon</title>
	<desc>hand_paper icon from the IconExperience.com I-Collection. Copyright by INCORS GmbH (www.incors.com).</desc>
	<path id="curve0" fill="#333333" d="M5500 2500l-500 0c-165,0 -300,-135 -300,-300l0 -1600c0,-165 135,-300 300,-300l500 0 0 200 -500 0c-55,0 -100,45 -100,100l0 1600c0,55 45,100 100,100l500 0 0 200zm-3059 -600c-86,51 -158,120 -214,200l-1727 0 0 2800 3800 0 0 -2366 157 -134 43 0 0 2700 -4200 0 0 -3200 2141 0zm-121 737c-76,-265 79,-542 343,-617l479 -137 83 -103 -231 -77 -21 4 -573 -2c-2,-49 31,-93 80,-103l501 -100c16,-3 33,-2 50,3l328 110 64 -78c34,-43 97,-49 140,-14 42,34 49,97 14,140l-296 365c-13,18 -32,32 -55,38l-508 146c-159,45 -252,211 -206,370 45,159 211,252 370,207l727 -208c29,-9 63,-34 86,-53l581 -499c18,-18 43,-29 71,-29l153 0 0 200 -117 0 -559 479c-43,38 -105,78 -161,94l-727 208c-264,75 -541,-80 -616,-344zm382 -1863l-782 587c-76,57 -120,144 -120,239l0 102 -200 -1 0 -101c0,-158 75,-304 201,-399l772 -579c91,-78 207,-122 327,-122l1000 0c32,0 67,4 98,10l502 100 0 204 -541 -108c-2,0 -57,-6 -59,-6l-1000 0c-73,0 -143,26 -198,74z"/>
</svg>