<?xml version="1.0" encoding="UTF-8"?>
<!DOCTYPE svg PUBLIC "-//W3C//DTD SVG 1.1//EN" "http://www.w3.org/Graphics/SVG/1.1/DTD/svg11.dtd">
<svg xmlns="http://www.w3.org/2000/svg" xml:space="preserve" width="580px" height="580px" shape-rendering="geometricPrecision" text-rendering="geometricPrecision" image-rendering="optimizeQuality" fill-rule="nonzero" clip-rule="nonzero" viewBox="0 0 5800 5800" xmlns:xlink="http://www.w3.org/1999/xlink">
	<title>sign_warning icon</title>
	<desc>sign_warning icon from the IconExperience.com I-Collection. Copyright by INCORS GmbH (www.incors.com).</desc>
		<path id="curve28" fill="#000000" d="M2800 4500l200 0 0 200 -200 0 0 -200zm200 -2400l0 2000 -200 0 0 -2000 200 0zm63 -1327c-34,-60 -94,-94 -163,-94 -69,0 -129,34 -163,94l-2308 4053c-34,58 -39,128 -5,187 38,67 102,87 176,87l4633 2c62,0 116,-27 147,-83 33,-61 26,-134 -9,-193l-2308 -4053zm173 -98l2308 4051c148,255 -7,575 -311,575l-4652 -1c-300,1 -474,-317 -325,-574l2308 -4051c150,-264 525,-258 672,0z"/>
</svg>