<?xml version="1.0" encoding="UTF-8"?>
<!DOCTYPE svg PUBLIC "-//W3C//DTD SVG 1.1//EN" "http://www.w3.org/Graphics/SVG/1.1/DTD/svg11.dtd">
<svg xmlns="http://www.w3.org/2000/svg" xml:space="preserve" width="580px" height="580px" shape-rendering="geometricPrecision" text-rendering="geometricPrecision" image-rendering="optimizeQuality" fill-rule="nonzero" clip-rule="nonzero" viewBox="0 0 5800 5800" xmlns:xlink="http://www.w3.org/1999/xlink">
	<title>brush icon</title>
	<desc>brush icon from the IconExperience.com I-Collection. Copyright by INCORS GmbH (www.incors.com).</desc>
		<path id="curve28" fill="#000000" d="M5282 752l-34 -34c-21,-21 -54,-24 -78,-7 -425,307 -909,676 -1404,1091 -398,334 -804,698 -1189,1083 -46,46 -89,100 -129,151 211,127 389,309 522,517 49,-42 99,-84 145,-130 385,-386 749,-791 1083,-1189 415,-495 784,-979 1091,-1404 17,-24 14,-57 -7,-78zm-3181 2556c134,56 254,138 356,240 101,100 186,221 247,348l-181 85c-52,-109 -121,-206 -206,-291 -84,-83 -184,-153 -292,-198l76 -184zm3288 -2732l35 35c90,90 101,231 26,335 -311,431 -683,920 -1098,1416 -340,404 -708,814 -1096,1202 -27,27 -64,62 -111,102 -39,33 -85,71 -137,111 -48,43 -123,30 -154,-27 -58,-108 -130,-208 -213,-299 -108,-120 -239,-220 -384,-292 -59,-25 -79,-99 -40,-151 43,-56 84,-108 121,-153 43,-53 77,-91 98,-111 388,-388 798,-756 1202,-1096 496,-415 985,-787 1416,-1098 104,-75 245,-64 335,26zm-3051 4055c-42,86 -102,165 -176,232 -160,144 -386,237 -634,237l-928 0 -241 0c79,-79 156,-158 238,-234 104,-97 257,-238 308,-396 15,-46 27,-95 39,-145 39,-162 80,-336 214,-473 273,-279 720,-311 1005,-32 221,216 313,524 175,811zm-289 -643c-204,-224 -541,-209 -748,3 -96,99 -131,244 -164,380 -13,55 -26,110 -42,159 -47,147 -149,271 -246,370l679 0c197,0 375,-72 500,-185 55,-49 99,-108 130,-171 95,-197 36,-395 -109,-556z"/>
</svg>