<?xml version="1.0" encoding="UTF-8"?>
<!DOCTYPE svg PUBLIC "-//W3C//DTD SVG 1.1//EN" "http://www.w3.org/Graphics/SVG/1.1/DTD/svg11.dtd">
<svg xmlns="http://www.w3.org/2000/svg" xml:space="preserve" width="580px" height="580px" shape-rendering="geometricPrecision" text-rendering="geometricPrecision" image-rendering="optimizeQuality" fill-rule="nonzero" clip-rule="nonzero" viewBox="0 0 5800 5800" xmlns:xlink="http://www.w3.org/1999/xlink">
	<title>data_floppy_disk icon</title>
	<desc>data_floppy_disk icon from the IconExperience.com I-Collection. Copyright by INCORS GmbH (www.incors.com).</desc>
		<path id="curve29" fill="#000000" d="M2880 300l222 219 0 562 -121 120 119 118 0 562 -119 118 91 90 11 11c-826,0 -1652,0 -2478,0l-103 101 0 398 103 101 1495 0 0 200 -1495 0 -103 101 0 398 103 101 1495 0 0 200 -1576 0 -222 -219 0 -562 121 -119 -121 -119 0 -562 119 -118 -121 -120 0 -562 121 -120 -119 -118 0 -562 222 -219 2356 0zm-83 1000l-2194 0 -103 101 0 398 103 101 2194 0 103 -101 0 -398 -103 -101zm2 -800l-2194 0 -103 101 0 398 103 101 2194 0 103 -101 0 -398 -103 -101z"/>
	<path id="curve28" fill="#000000" d="M5500 2300l0 3200c-981,0 -1961,0 -2941,0l-259 -258 0 -2942c1067,0 2133,0 3200,0zm-2200 2800l0 -600 400 0 0 200 -200 0 0 400 -200 0zm1400 -1000l0 1200 600 0 0 -2800 -200 0 0 900c0,165 -135,300 -300,300l-1800 0c-165,0 -300,-135 -300,-300l0 -900 -200 0 0 2658 141 142 259 0 0 -1200 1800 0zm-200 200l-1400 0 0 1000 1400 0 0 -1000zm-1400 -1600l1600 0 0 200 -1600 0 0 -200zm-200 -200l0 900c0,55 45,100 100,100l1800 0c55,0 100,-45 100,-100l0 -900 -2000 0z"/>
</svg>